<svg id="Layer_1" enable-background="new 0 0 512 512" height="512" viewBox="0 0 512 512" width="512" xmlns="http://www.w3.org/2000/svg" xmlns:xlink="http://www.w3.org/1999/xlink"><linearGradient id="SVGID_1_" gradientUnits="userSpaceOnUse" x1="256" x2="256" y1="0" y2="512"><stop offset="0" stop-color="#9b59b6"/><stop offset="1" stop-color="#9b59b6"/></linearGradient><path d="m119 352h-40v-193h40zm78-273h-40v353h40zm78 96h-40v159h40zm237 277v-392c0-33.084-26.916-60-60-60h-392c-33.084 0-60 26.916-60 60v392c0 33.084 26.916 60 60 60h392c33.084 0 60-26.916 60-60zm-60-412c11.028 0 20 8.972 20 20v392c0 11.028-8.972 20-20 20h-392c-11.028 0-20-8.972-20-20v-392c0-11.028 8.972-20 20-20zm-98 165h-40v99h40zm79 20h-40v59h40z" fill="url(#SVGID_1_)"/></svg>